<?xml version="1.0" encoding="UTF-8"?>
<!--
  Souso favicon. The chef's toque from souso-mark.svg in its native dark green
  (#16341f) on a full-bleed cream (#F5F1E7) square. The viewBox is the toque's
  tight bounding box (in the mark's 1866.77x1148.2 space) squared with ~6 percent
  padding so the hat FILLS the icon and reads crisply at 16/32px. Single source
  path, original geometry, cream rect behind it. Issue #455.
-->
<svg xmlns="http://www.w3.org/2000/svg" viewBox="588.98 -72.12 725.78 725.78" width="725.78" height="725.78">
  <rect x="588.98" y="-72.12" width="725.78" height="725.78" fill="#F5F1E7"/>
  <path fill="#16341f" d="M960.82,332.06c-1.12-50.8-3.02-99.38-7.81-150.21-2.29,1.74-3.59,4.61-3.87,7.99-4.28,50.51-6.32,98.98-7.23,149.51l-2.09,115.57-58.27,4.01-9.27-44.02c-10.35-49.16-25.03-96.31-49.52-142.57.52,16.57,4.96,31.35,8.74,47.22,11.18,46.99,20.76,93.59,27.92,142.53l-50.87,9.47c-17.53-52.71-39.91-105.46-77.36-149.2l35.73,89.55,20.84,64.73-30.17,10.52c-14.35-36.9-36.54-69.32-62.02-99.39-6.25-7.37-11.3-13.48-21.7-18.18l28.69,48.92c13.43,23.69,24.65,47.71,34.65,73.18.16.98.89,4.37.1,4.56l-4.29,1.05-33.39-41.87-49.88-57.81c-30.04-34.82-30.88-104.09,9.06-136.68,5.99,21.12,14.12,41.35,31.96,53.19-12.57-31.43-19.25-58.5-15.78-89.04,6.29-55.34,52.42-95.92,108.53-94.67l37.76,4.57c-15.05,28.87-21.33,61.87-9.08,93.24,3.63-54.27,25.46-101.12,72.17-127.41,40.54-22.82,90.56-23.55,131.73-1.63,40.37,21.49,65.98,60.9,71.73,105.72l4.2,22.28c9.47-31.16,5.4-63.38-10.46-91.63,17.08-4.21,32.84-6.08,49.26-4.68,55.6,4.72,96.41,49.35,98.27,105.02.93,27.82-7.37,51.17-17.08,80.09,16.98-14.08,26.09-32.59,32.09-55.06,40.79,34.49,39.92,101.73,4.81,142.54l-26.82,31.17c-18.13,21.08-36.31,40.04-52.48,63.06l-4.68-3.62,31.1-67.78,32.09-57.42c-22.01,16.55-36.05,37.54-50.91,58.89-13.14,18.87-23.22,38.39-31.69,59.72l-30.28-10.62c13.9-53.32,35.37-101.84,56.56-153.92-17.23,16.76-27.41,36.69-38.62,56.93-16.41,29.63-29.16,60.82-38.51,92.62l-51.01-10.55c7.14-46.25,18.13-92.01,27.34-138.46l10.11-50.99c-11.04,16.06-16.42,32.4-23.19,50.4-16.63,44.24-27.54,89.98-36.5,136.2l-57.88-3.98-2.71-123.04Z"/>
</svg>
