<svg width="1866" height="1866" viewBox="0 0 1866 1866" fill="none" xmlns="http://www.w3.org/2000/svg">
<rect width="1866" height="1866" fill="#659220"/>
<path d="M953.494 835.871C951.038 724.506 946.873 618.007 936.372 506.576C931.352 510.391 928.502 516.682 927.888 524.092C918.506 634.822 914.033 741.079 912.038 851.852L907.457 1105.21L779.716 1114L759.394 1017.5C736.704 909.727 704.522 806.363 650.835 704.951C651.975 741.276 661.708 773.677 669.995 808.468C694.504 911.481 715.505 1013.64 731.202 1120.93L619.683 1141.69C581.253 1026.13 532.191 910.494 450.092 814.606L528.421 1010.92L574.107 1152.82L507.967 1175.89C476.509 1094.99 427.863 1023.92 372.005 958C358.304 941.843 347.233 928.449 324.434 918.145L387.329 1025.39C416.77 1077.32 441.367 1129.98 463.29 1185.82C463.64 1187.96 465.241 1195.4 463.509 1195.81L454.104 1198.11L380.906 1106.33L271.557 979.593C205.703 903.26 203.861 751.404 291.419 679.96C304.55 726.259 322.373 770.608 361.482 796.564C333.926 727.662 319.282 668.319 326.889 601.368C340.678 480.05 441.806 391.09 564.812 393.83L647.59 403.848C614.597 467.138 600.83 539.482 627.685 608.252C635.642 489.28 683.499 386.574 785.898 328.94C874.771 278.913 984.426 277.313 1074.68 325.367C1163.18 372.478 1219.32 458.873 1231.93 557.129L1241.14 605.972C1261.9 537.662 1252.97 467.028 1218.2 405.098C1255.65 395.869 1290.2 391.769 1326.19 394.838C1448.08 405.186 1537.55 503.025 1541.62 625.066C1543.66 686.054 1525.47 737.242 1504.18 800.642C1541.41 769.775 1561.38 729.197 1574.53 679.938C1663.95 755.548 1662.04 902.953 1585.07 992.418L1526.28 1060.75C1486.53 1106.96 1446.68 1148.53 1411.23 1198.99L1400.97 1191.06L1469.15 1042.47L1539.5 916.589C1491.25 952.87 1460.47 998.885 1427.89 1045.69C1399.09 1087.06 1376.99 1129.85 1358.42 1176.61L1292.04 1153.33C1322.51 1036.44 1369.58 930.071 1416.03 815.9C1378.26 852.641 1355.94 896.333 1331.37 940.703C1295.39 1005.66 1267.44 1074.03 1246.95 1143.75L1135.12 1120.62C1150.77 1019.23 1174.86 918.912 1195.06 817.083L1217.22 705.302C1193.02 740.509 1181.22 776.33 1166.38 815.79C1129.92 912.774 1106.01 1013.05 1086.36 1114.37L959.478 1105.65L953.537 835.915L953.494 835.871Z" fill="white"/>
<path d="M1379.6 1490.47C1336.52 1471.16 1296.6 1458.57 1248.81 1450C1039.1 1412.36 825.489 1411.44 615.869 1449.78C568.955 1458.35 527.895 1471.44 485.672 1490.1L486.023 1314.33C572.068 1273.46 658.003 1247.97 749.77 1231.11L828.164 1212.96C726.204 1211.36 628.671 1227.62 533.375 1258.71L485.563 1277.17V1232.18C664.317 1151.49 888.384 1138.64 1083.71 1157.6C1187.16 1167.64 1286.51 1189.87 1380.71 1231.79L1381.61 1398.77L1283.23 1372.27C1187.12 1356.92 1092.9 1349.07 998.018 1358.28L1034.52 1363.26L1212.18 1387.85C1271.02 1396.01 1323.7 1413.04 1379.68 1435.8L1379.58 1490.49L1379.6 1490.47Z" fill="white"/>
<path d="M1225.33 1554.88C1031.05 1582.54 837.437 1582.28 645.551 1555.86C602.277 1549.9 565.228 1539.93 526.864 1519.76C557.183 1506.69 581.56 1500.51 611.988 1495.01C823.253 1456.89 1038.97 1456.4 1250.47 1493.25C1283.1 1498.93 1309.86 1505.82 1338.51 1520.83C1300.22 1539.07 1267.35 1548.89 1225.33 1554.88Z" fill="white"/>
</svg>
