<?xml version="1.0" encoding="UTF-8"?>
<svg id="Layer_1" data-name="Layer 1" xmlns="http://www.w3.org/2000/svg" viewBox="0 0 1866.77 1148.2">
  <defs>
    <style>
      .cls-1 {
        fill: #16341f;
      }
    </style>
  </defs>
  <path class="cls-1" d="M960.82,332.06c-1.12-50.8-3.02-99.38-7.81-150.21-2.29,1.74-3.59,4.61-3.87,7.99-4.28,50.51-6.32,98.98-7.23,149.51l-2.09,115.57-58.27,4.01-9.27-44.02c-10.35-49.16-25.03-96.31-49.52-142.57.52,16.57,4.96,31.35,8.74,47.22,11.18,46.99,20.76,93.59,27.92,142.53l-50.87,9.47c-17.53-52.71-39.91-105.46-77.36-149.2l35.73,89.55,20.84,64.73-30.17,10.52c-14.35-36.9-36.54-69.32-62.02-99.39-6.25-7.37-11.3-13.48-21.7-18.18l28.69,48.92c13.43,23.69,24.65,47.71,34.65,73.18.16.98.89,4.37.1,4.56l-4.29,1.05-33.39-41.87-49.88-57.81c-30.04-34.82-30.88-104.09,9.06-136.68,5.99,21.12,14.12,41.35,31.96,53.19-12.57-31.43-19.25-58.5-15.78-89.04,6.29-55.34,52.42-95.92,108.53-94.67l37.76,4.57c-15.05,28.87-21.33,61.87-9.08,93.24,3.63-54.27,25.46-101.12,72.17-127.41,40.54-22.82,90.56-23.55,131.73-1.63,40.37,21.49,65.98,60.9,71.73,105.72l4.2,22.28c9.47-31.16,5.4-63.38-10.46-91.63,17.08-4.21,32.84-6.08,49.26-4.68,55.6,4.72,96.41,49.35,98.27,105.02.93,27.82-7.37,51.17-17.08,80.09,16.98-14.08,26.09-32.59,32.09-55.06,40.79,34.49,39.92,101.73,4.81,142.54l-26.82,31.17c-18.13,21.08-36.31,40.04-52.48,63.06l-4.68-3.62,31.1-67.78,32.09-57.42c-22.01,16.55-36.05,37.54-50.91,58.89-13.14,18.87-23.22,38.39-31.69,59.72l-30.28-10.62c13.9-53.32,35.37-101.84,56.56-153.92-17.23,16.76-27.41,36.69-38.62,56.93-16.41,29.63-29.16,60.82-38.51,92.62l-51.01-10.55c7.14-46.25,18.13-92.01,27.34-138.46l10.11-50.99c-11.04,16.06-16.42,32.4-23.19,50.4-16.63,44.24-27.54,89.98-36.5,136.2l-57.88-3.98-2.71-123.04Z"/>
  <path class="cls-1" d="M364.22,1033.09c-51.87,11.36-106.16,2.47-145.84-32.62l-30.45,29.29-21.07-.12,21.79-128.31,19.62-.15,11.25,41.93c5.2,19.38,18.1,35.46,33.9,48.29,34.1,27.69,80.22,30.5,120.22,13.84,25.12-10.47,41.58-29.95,48.67-56.21,15.29-56.58-41.21-78.91-87.67-100.94-41.56-19.7-87.36-44.62-98.13-91.09-5.49-23.68-5.52-48.27-.66-71.91,13.33-64.81,67.9-111.83,133.59-114.91,38.75-1.82,73.74,7.92,104.18,32.91l22.47-27.31,16.78-.08-20.89,120.71-19.75.22c2.15-40.85-18.15-79.48-56.23-95.57-24.33-10.28-51.18-10.84-76.01-3.96-33.01,9.15-54.01,40.12-47.98,73.85,9.45,52.83,107.33,59.33,160.82,115.11,53.18,55.45,43.39,149.16-10.18,203.33-22.12,22.37-48.13,37.07-78.45,43.71Z"/>
  <path class="cls-1" d="M1105.85,988.34c14.42-15.18,22.75-31.8,29.6-52.3,1.93-1.24,6.7-2.06,9.71-2.12s9.19,5.83,7.94,9.02c-8.69,22.21-20.11,42.39-35.57,60.03-35.31,40.27-98.96,45.07-118.97,11.21-8.31-14.06-6.19-27.73-3.61-45.15-21.84,22.46-40.87,45.08-68.52,58.17-24.56,11.62-52.05,12.61-76.72,3.49-20.61-7.62-32.16-25.8-29.97-48.11l9.48-46.18,41.68-159.37-57.02,1.4v-19.31s146.55-.13,146.55-.13l-13.36,50.38-44.17,169.37c-1.74,6.67-2.94,17.43-.19,22.24,4.92,8.62,17.02,7.85,24,3.28l28.03-18.37c20.37-18.46,43.17-41.03,50.42-68.75l41.35-157.97,82.02-.17-53.7,219.66c-2.05,8.39-1.76,16.58-.19,24.99,13.56,1.05,21.83-6.63,31.22-15.3Z"/>
  <path class="cls-1" d="M1155.19,630.66c-19.65-8.81-37.86-14.55-59.66-18.46-95.66-17.17-193.1-17.59-288.72-.1-21.4,3.91-40.13,9.88-59.39,18.39l.16-80.18c39.25-18.64,78.45-30.27,120.31-37.96l35.76-8.28c-46.51-.73-91,6.69-134.47,20.87l-21.81,8.42v-20.52c81.54-36.81,183.75-42.67,272.85-34.02,47.19,4.58,92.51,14.72,135.48,33.84l.41,76.17-44.88-12.09c-43.84-7-86.82-10.58-130.1-6.38l16.65,2.27,81.04,11.22c26.84,3.72,50.87,11.49,76.41,21.87l-.05,24.95Z"/>
  <path class="cls-1" d="M1691.75,847.12c9.4,109.35-110.08,210.89-222.18,186.59-18.19-3.94-34.67-13.19-48.81-24.63-47.99-38.83-46.35-109.13-13.61-161.81,24.86-39.99,60.8-68.57,104.43-85.29,37.2-14.25,81.3-16,117.49,1.22,32.92,15.66,59.41,45.98,62.67,83.91ZM1498.23,1014.27c40.28,8.91,66.48-36.15,80.53-71.99,18.56-47.32,24.26-98.04,18.64-149.09-.86-7.82-9.65-16.32-16.57-18.07-37.4-9.49-64.02,21.18-79.1,55.21-21.54,48.62-31,101.67-25.97,154.63,1.27,13.33,8.77,26.29,22.46,29.32Z"/>
  <path class="cls-1" d="M748.44,987.73c-59.52,56.82-166.83,71.85-220.53,9.1-40.94-47.84-26.04-123.46,15.77-171.76,9.32-10.76,18.81-20.97,30.01-29.8,26.62-21,57.44-36.14,91.05-42.23,43.7-7.92,90.56,3.63,120.24,36.07,55.05,60.16,21.1,149.59-36.54,198.62ZM661.03,1002.16c35.81-32.59,51.02-89.72,57.53-138.26,2.97-22.13,2.59-44.74-.4-66.55-2-14.61-12.31-24.19-26.73-24.35-18.36-.2-34.68,7.51-46.49,21.7-36.9,44.33-51.4,113.95-49.71,172.23.36,12.5.19,24.83,6.19,35.97,9.53,17.72,40.57,16.57,59.6-.75Z"/>
  <path class="cls-1" d="M1332.12,1010.12c-45.78,33.4-120.3,37.59-163.11,2.98-17.06-13.79-23.86-37.38-14.42-56.91,6.79-14.05,22.26-17.71,36.32-17.73,14.5-.01,24.68,4.93,31.39,17.34,13.44,24.86-7.11,32.81-2.02,46.28,6.74,17.83,43.53,16.09,67.29,7.42,10.64-3.88,21.96-14.41,21.33-26.53-.73-14.05-12.48-24.76-23.5-32.49-27.78-19.48-69.6-44.97-84.1-71.66-10.4-19.13-14.02-44.68-5.51-65.36,28.93-70.28,126.62-79.38,170.86-38.1,10.51,9.81,16.7,20.91,13.93,36.01-2.6,14.19-14.62,23.07-29.19,24.24s-30.25-3.97-35.93-18.89c-4.02-10.55.59-22.34,1.76-33.77,2.03-19.85-64.73-16.95-69.89,9.76-1.46,7.55,1.61,17.78,7.84,22.18l31.74,22.45c20.45,14.47,41.64,26.54,58.06,45.32,33.91,38.78,29.04,96.88-12.83,127.44Z"/>
  <path class="cls-1" d="M1084.82,660.04c-88.62,12.62-176.94,12.5-264.47.45-19.74-2.72-36.64-7.27-54.14-16.47,13.83-5.96,24.95-8.78,38.83-11.29,96.37-17.39,194.77-17.61,291.25-.8,14.88,2.59,27.09,5.73,40.16,12.58-17.47,8.32-32.46,12.8-51.63,15.53Z"/>
</svg>